<svg width="20" height="20" viewBox="0 0 20 20" fill="none" xmlns="http://www.w3.org/2000/svg">
<path d="M17.1056 2.27661H2.89472C2.55296 2.27661 2.27686 2.55272 2.27686 2.89447V17.1053C2.27686 17.4471 2.55296 17.7232 2.89472 17.7232H17.1056C17.4473 17.7232 17.7234 17.4471 17.7234 17.1053V2.89447C17.7234 2.55272 17.4473 2.27661 17.1056 2.27661ZM15.3215 6.78508H14.0877C13.1204 6.78508 12.9331 7.24462 12.9331 7.92041V9.40907H15.2423L14.9411 11.7396H12.9331V17.7232H10.5253V11.7415H8.51148V9.40907H10.5253V7.69064C10.5253 5.6961 11.7437 4.60905 13.5239 4.60905C14.3773 4.60905 15.1091 4.67276 15.3234 4.70173V6.78508H15.3215Z" fill="white"/>
</svg>
