<svg width="22" height="26" viewBox="0 0 22 26" fill="none" xmlns="http://www.w3.org/2000/svg">
<path d="M20.0037 11.0753L4.64739 1.37299C4.22952 1.10787 3.74759 0.958942 3.25191 0.941743C2.75624 0.924544 2.265 1.03971 1.82948 1.27522C1.39397 1.51072 1.03016 1.85793 0.77603 2.28059C0.521901 2.70325 0.386777 3.18586 0.384766 3.67804V23.0826C0.385897 23.5722 0.519475 24.0526 0.771552 24.4736C1.02363 24.8946 1.38496 25.2406 1.81783 25.4757C2.25441 25.7136 2.74744 25.8307 3.24525 25.8146C3.74307 25.7985 4.22736 25.6498 4.64739 25.3842L20.0037 15.6819C20.3949 15.4355 20.7171 15.095 20.9403 14.692C21.1635 14.2891 21.2806 13.8367 21.2806 13.3768C21.2806 12.917 21.1635 12.4646 20.9403 12.0617C20.7171 11.6587 20.3949 11.3182 20.0037 11.0718V11.0753Z" fill="white"/>
</svg>
